<?xml version="1.0" encoding="UTF-8"?>
<!DOCTYPE svg PUBLIC "-//W3C//DTD SVG 1.1//EN" "http://www.w3.org/Graphics/SVG/1.1/DTD/svg11.dtd">
<!-- Creator: CorelDRAW 2020 (64-Bit) -->
<svg xmlns="http://www.w3.org/2000/svg" xml:space="preserve" width="118.149mm" height="16.5692mm" version="1.1" style="shape-rendering:geometricPrecision; text-rendering:geometricPrecision; image-rendering:optimizeQuality; fill-rule:evenodd; clip-rule:evenodd"
viewBox="0 0 18848.16 2643.26"
 xmlns:xlink="http://www.w3.org/1999/xlink"
 xmlns:xodm="http://www.corel.com/coreldraw/odm/2003">
 <defs>
  <style type="text/css">
   <![CDATA[
    .fil0 {fill:#2B2A29;fill-rule:nonzero}
    .fil1 {fill:#E53124;fill-rule:nonzero}
   ]]>
  </style>
 </defs>
 <g id="Layer_x0020_1">
  <metadata id="CorelCorpID_0Corel-Layer"/>
  <path class="fil0" d="M952.21 2036.81c-211.6,0 -365.13,-44.13 -459.67,-131.91 -94.55,-88.25 -141.82,-228.72 -141.82,-422.3l0 -237.27 279.59 0 0 224.2c0,110.76 27.45,191.35 81.49,241.32 54.02,49.98 143.16,75.19 266.99,75.19 44.11,0 90.48,-2.25 139.56,-7.19 49.53,-4.96 105.82,-11.26 168.85,-19.37l31.95 245.37c-61.67,10.82 -121.54,18.46 -180.08,23.87 -58.53,5.41 -120.67,8.1 -186.86,8.1zm-601.49 -686.13l0 -1160.68 279.59 0 0 1160.68 -279.59 0zm-350.72 -509.22l0 -229.16 1266.48 0 0 229.16 -1266.48 0z"/>
  <path id="_1" class="fil0" d="M2569.42 2023.3l-18.46 -414.2 -36.91 -115.71 0 -361.52c0,-93.2 -32.42,-161.63 -98.14,-205.31 -65.3,-43.22 -162.99,-67.08 -292.21,-70.22l-334.96 -9.46 26.56 -248.07 282.29 4.05c230.97,3.59 402.95,53.57 515.07,149.91 112.1,95.91 167.94,236.37 167.94,421.41l0 582.6 237.71 29.26 0 224.22 -448.88 13.05zm-492.99 13.51c-145.87,0 -258.88,-35.56 -339.01,-105.8 -80.15,-70.24 -120.22,-169.74 -120.22,-298.05 0,-147.68 55.39,-261.13 165.69,-340.37 110.31,-79.24 266.08,-118.42 467.79,-118.42 83.29,0 158.03,4.96 223.31,14.87 65.74,10.35 123.81,25.21 174.68,45.47l-58.07 190c-58.53,-13.05 -116.17,-20.71 -172.43,-22.96 -56.28,-2.25 -113.92,-3.16 -172.9,-3.16 -242.66,0 -364.22,73.85 -364.22,221.51 0,61.69 21.15,108.96 62.58,142.28 41.86,33.31 100.84,50.41 177.38,50.41 87.34,0 159.83,-15.3 218.36,-45.02 58.53,-29.7 102.19,-67.98 131.47,-114.8 28.81,-46.37 43.22,-94.55 43.22,-143.62l0 -153.08 81.93 358.83 -110.74 0 45.02 -42.32c0,81.04 -18.9,148.58 -56.28,202.6 -37.36,54.03 -90.04,94.55 -157.58,121.11 -67.53,27.01 -147.66,40.52 -239.96,40.52z"/>
  <path id="_2" class="fil0" d="M3313.63 2640.56l-13.05 -255.72 448.42 -13.07c141.37,-4.5 244.48,-43.66 308.86,-117.51 63.92,-73.83 96.34,-182.34 97.25,-325.95l0 -1020.66 26.56 -295.35 253.03 0 0 1274.14c0,248.53 -56.73,432.66 -169.74,551.08 -113.46,118.85 -294.44,182.34 -542.52,190l-408.81 13.05zm444.83 -603.75c-183.25,0 -321.91,-60.33 -416.47,-180.99 -94.54,-120.22 -141.82,-297.6 -141.82,-531.26 0,-243.12 47.28,-426.82 141.82,-551.54 94.55,-124.7 233.21,-187.29 416.47,-187.29 108.96,0 197.19,24.76 264.74,73.83 67.98,49.09 107.6,117.97 118.85,205.76l108.06 0 -95 398.45c0,-144.53 -28.36,-253.94 -85.09,-328.68 -56.73,-74.72 -140.02,-112.1 -249.89,-112.1 -112.55,0 -197.64,42.32 -255.72,126.97 -58.07,84.18 -87.34,208.9 -87.34,374.59 0,156.23 29.27,274.63 87.34,354.78 58.08,79.68 143.18,119.76 255.72,119.76 109.87,0 193.16,-37.38 249.89,-112.12 56.73,-74.72 85.09,-184.13 85.09,-328.2l95 397.99 -121.11 0c-9.01,88.24 -45.93,156.67 -111.65,206.21 -65.3,49.07 -151.73,73.83 -258.88,73.83z"/>
  <path id="_3" class="fil0" d="M4896.62 2640.56l-13.05 -255.72 448.42 -13.07c141.37,-4.5 244.48,-43.66 308.86,-117.51 63.92,-73.83 96.34,-182.34 97.25,-325.95l0 -1020.66 26.56 -295.35 253.03 0 0 1274.14c0,248.53 -56.73,432.66 -169.74,551.08 -113.46,118.85 -294.44,182.34 -542.52,190l-408.81 13.05zm444.83 -603.75c-183.25,0 -321.91,-60.33 -416.47,-180.99 -94.54,-120.22 -141.82,-297.6 -141.82,-531.26 0,-243.12 47.28,-426.82 141.82,-551.54 94.55,-124.7 233.21,-187.29 416.47,-187.29 108.96,0 197.19,24.76 264.74,73.83 67.98,49.09 107.6,117.97 118.85,205.76l108.06 0 -95 398.45c0,-144.53 -28.36,-253.94 -85.09,-328.68 -56.73,-74.72 -140.02,-112.1 -249.89,-112.1 -112.55,0 -197.64,42.32 -255.72,126.97 -58.07,84.18 -87.34,208.9 -87.34,374.59 0,156.23 29.27,274.63 87.34,354.78 58.08,79.68 143.18,119.76 255.72,119.76 109.87,0 193.16,-37.38 249.89,-112.12 56.73,-74.72 85.09,-184.13 85.09,-328.2l95 397.99 -121.11 0c-9.01,88.24 -45.93,156.67 -111.65,206.21 -65.3,49.07 -151.73,73.83 -258.88,73.83z"/>
  <path id="_4" class="fil0" d="M7165.75 2036.81c-238.62,0 -422.3,-63.03 -551.97,-188.2 -130.13,-125.17 -194.96,-305.24 -194.96,-540.26 0,-228.27 55.39,-406.11 165.24,-532.62 109.85,-126.52 265.18,-190 465.54,-190 189.09,0 334.96,57.18 438.51,171.54 103.1,114.35 154.87,280.48 154.87,498.4 0,64.37 -2.7,124.26 -7.64,179.63l-981.5 0 0 -213.85 736.13 0c0,-125.61 -30.17,-222.41 -90.05,-289.5 -59.42,-67.08 -142.27,-100.85 -247.62,-100.85 -118.86,0 -211.15,40.52 -276.43,121.11 -65.74,81.04 -98.16,195.39 -98.16,343.07 0,161.63 45.02,285 135.07,369.18 90.04,84.65 218.36,126.97 384.5,126.97 58.07,0 115.24,-3.61 171.53,-9.91 56.28,-6.75 113.46,-15.76 171.54,-27.01l34.22 245.37c-82.84,15.76 -158.48,25.67 -226.91,30.17 -68.44,4.5 -129.22,6.75 -181.89,6.75z"/>
  <path id="_5" class="fil0" d="M8519.13 1408.75l-81.95 -438.07 108.06 0c16.21,-256.63 144.52,-384.94 385.39,-384.94 144.07,0 248.98,41.43 313.81,123.81 65.28,82.84 97.7,216.56 97.7,401.15l-276.89 0c0,-102.19 -15.3,-175.59 -45.47,-220.17 -30.61,-45.02 -79.7,-67.53 -147.23,-67.53 -118.86,0 -207.1,50.87 -265.63,152.62 -58.53,101.3 -87.79,245.83 -87.79,433.12zm-591.15 601.5l0 -229.61 934.22 0 0 229.61 -934.22 0zm311.56 0l0 -1397.95 226.91 0 52.68 400.7 0 997.25 -279.59 0zm-258.44 -1168.79l0 -229.16 466.89 0 26.1 229.16 -492.99 0z"/>
  <path id="_6" class="fil1" d="M10197.11 2036.81c-53.59,0 -99.51,-19.35 -137.77,-57.62 -38.27,-38.27 -57.64,-84.2 -57.64,-137.77 0,-54.48 19.37,-100.85 57.64,-138.68 38.25,-37.81 84.18,-56.73 137.77,-56.73 54.46,0 100.39,18.92 138.22,56.73 37.81,37.82 56.73,84.2 56.73,138.68 0,53.57 -18.92,99.5 -56.73,137.77 -37.82,38.27 -83.75,57.62 -138.22,57.62z"/>
  <path id="_7" class="fil1" d="M12070.04 2010.25l0 -909.9c0,-84.65 -21.62,-149.92 -65.74,-195.39 -44.13,-45.93 -105.8,-68.44 -184.59,-68.44 -220.17,0 -330.02,129.22 -330.02,387.64l-81.49 -358.83 108.05 0c7.66,-94.09 42.32,-164.33 102.66,-210.26 60.78,-46.37 149.48,-69.33 266.54,-69.33 147.66,0 262.03,45.02 343.07,134.61 81.04,89.61 121.11,216.11 121.11,380l0 909.9 -279.59 0zm-859.94 0l0 -1397.95 253.47 0 26.11 295.35 0 1102.6 -279.59 0z"/>
  <path id="_8" class="fil1" d="M13315.36 2010.25l0 -1319.16 279.59 0 0 1319.16 -279.59 0zm-532.62 0l0 -229.61 559.18 0 0 229.61 -559.18 0zm786.09 0l0 -229.61 456.52 0 0 229.61 -456.52 0zm-706.86 -1168.79l0 -229.16 732.97 0 0 229.16 -732.97 0zm583.94 -451.11c-53.57,0 -99.5,-18.92 -137.77,-57.19 -38.25,-38.25 -57.18,-84.18 -57.18,-137.77 0,-54.46 18.92,-100.84 57.18,-138.66 38.27,-37.82 84.2,-56.73 137.77,-56.73 54.48,0 100.85,18.9 138.68,56.73 37.82,37.82 56.73,84.2 56.73,138.66 0,53.59 -18.9,99.51 -56.73,137.77 -37.82,38.27 -84.2,57.19 -138.68,57.19z"/>
  <path id="_9" class="fil1" d="M15236.02 2010.25l0 -909.9c0,-84.65 -21.62,-149.92 -65.74,-195.39 -44.13,-45.93 -105.8,-68.44 -184.59,-68.44 -220.17,0 -330.02,129.22 -330.02,387.64l-81.49 -358.83 108.05 0c7.66,-94.09 42.32,-164.33 102.66,-210.26 60.78,-46.37 149.48,-69.33 266.54,-69.33 147.66,0 262.03,45.02 343.07,134.61 81.04,89.61 121.11,216.11 121.11,380l0 909.9 -279.59 0zm-859.94 0l0 -1397.95 253.47 0 26.11 295.35 0 1102.6 -279.59 0z"/>
  <path id="_10" class="fil1" d="M15974.83 2643.26l-13.05 -248.07 263.83 -23.42c141.37,-13.5 244.01,-54.46 307.95,-124.26 63.92,-69.33 95.45,-175.59 95.45,-319.2l0 -424.57 280.04 0 0 382.69c0,166.13 -24.76,301.21 -73.83,405.2 -49.53,104.44 -126.52,183.23 -230.97,236.36 -104.91,53.14 -239.53,86.45 -405.2,99.51l-224.22 15.75zm110.76 -1801.8l0 -229.16 564.57 0 0 229.16 -564.57 0zm543.42 707.3l0 -936.46 280.04 0 0 936.46 -280.04 0zm111.21 -1158.42c-54.03,0 -99.96,-18.92 -138.22,-57.19 -38.27,-38.25 -57.19,-84.18 -57.19,-137.77 0,-54.46 18.92,-100.84 57.19,-138.66 38.25,-37.82 84.18,-56.73 138.22,-56.73 54.48,0 100.39,18.9 138.22,56.73 37.82,37.82 56.73,84.2 56.73,138.66 0,53.59 -18.9,99.51 -56.73,137.77 -37.82,38.27 -83.74,57.19 -138.22,57.19z"/>
  <path id="_11" class="fil1" d="M18399.28 2023.3l-18.46 -414.2 -36.91 -115.71 0 -361.52c0,-93.2 -32.42,-161.63 -98.14,-205.31 -65.3,-43.22 -162.99,-67.08 -292.21,-70.22l-334.96 -9.46 26.56 -248.07 282.29 4.05c230.97,3.59 402.95,53.57 515.07,149.91 112.1,95.91 167.94,236.37 167.94,421.41l0 582.6 237.71 29.26 0 224.22 -448.88 13.05zm-492.99 13.51c-145.87,0 -258.88,-35.56 -339.01,-105.8 -80.15,-70.24 -120.22,-169.74 -120.22,-298.05 0,-147.68 55.39,-261.13 165.69,-340.37 110.31,-79.24 266.08,-118.42 467.79,-118.42 83.29,0 158.03,4.96 223.31,14.87 65.74,10.35 123.81,25.21 174.68,45.47l-58.07 190c-58.53,-13.05 -116.17,-20.71 -172.43,-22.96 -56.28,-2.25 -113.92,-3.16 -172.9,-3.16 -242.66,0 -364.22,73.85 -364.22,221.51 0,61.69 21.15,108.96 62.58,142.28 41.86,33.31 100.84,50.41 177.38,50.41 87.34,0 159.83,-15.3 218.36,-45.02 58.53,-29.7 102.19,-67.98 131.47,-114.8 28.81,-46.37 43.22,-94.55 43.22,-143.62l0 -153.08 81.93 358.83 -110.74 0 45.02 -42.32c0,81.04 -18.9,148.58 -56.28,202.6 -37.36,54.03 -90.04,94.55 -157.58,121.11 -67.53,27.01 -147.66,40.52 -239.96,40.52z"/>
 </g>
</svg>
