<?xml version="1.0" encoding="UTF-8"?>
<!DOCTYPE svg PUBLIC "-//W3C//DTD SVG 1.1//EN" "http://www.w3.org/Graphics/SVG/1.1/DTD/svg11.dtd">
<!-- Creator: CorelDRAW 2020 (64-Bit) -->
<svg xmlns="http://www.w3.org/2000/svg" xml:space="preserve" width="118.149mm" height="16.5692mm" version="1.1" style="shape-rendering:geometricPrecision; text-rendering:geometricPrecision; image-rendering:optimizeQuality; fill-rule:evenodd; clip-rule:evenodd"
viewBox="0 0 19641.22 2754.48"
 xmlns:xlink="http://www.w3.org/1999/xlink"
 xmlns:xodm="http://www.corel.com/coreldraw/odm/2003">
 <defs>
  <style type="text/css">
   <![CDATA[
    .fil0 {fill:#FEFEFE;fill-rule:nonzero}
    .fil1 {fill:#E53124;fill-rule:nonzero}
   ]]>
  </style>
 </defs>
 <g id="Layer_x0020_1">
  <metadata id="CorelCorpID_0Corel-Layer"/>
  <path class="fil0" d="M992.28 2122.51c-220.5,0 -380.49,-45.98 -479.01,-137.46 -98.53,-91.96 -147.79,-238.34 -147.79,-440.07l0 -247.25 291.35 0 0 233.64c0,115.42 28.61,199.41 84.92,251.47 56.29,52.08 149.18,78.35 278.22,78.35 45.97,0 94.29,-2.34 145.43,-7.5 51.62,-5.17 110.27,-11.74 175.95,-20.18l33.3 255.7c-64.27,11.27 -126.66,19.23 -187.65,24.87 -60.99,5.64 -125.74,8.45 -194.72,8.45zm-626.79 -715l0 -1209.52 291.35 0 0 1209.52 -291.35 0zm-365.48 -530.64l0 -238.81 1319.77 0 0 238.81 -1319.77 0z"/>
  <path id="_1" class="fil0" d="M2677.53 2108.43l-19.23 -431.63 -38.47 -120.57 0 -376.74c0,-97.12 -33.78,-168.44 -102.27,-213.95 -68.04,-45.03 -169.85,-69.9 -304.5,-73.18l-349.06 -9.86 27.68 -258.5 294.16 4.22c240.68,3.74 419.91,55.82 536.74,156.22 116.82,99.94 175,246.32 175,439.14l0 607.11 247.72 30.49 0 233.65 -467.77 13.6zm-513.73 14.08c-152.01,0 -269.78,-37.06 -353.28,-110.25 -83.52,-73.2 -125.28,-176.88 -125.28,-310.59 0,-153.89 57.72,-272.12 172.66,-354.69 114.96,-82.57 277.27,-123.4 487.47,-123.4 86.79,0 164.68,5.17 232.7,15.49 68.51,10.79 129.02,26.27 182.03,47.38l-60.51 197.99c-60.99,-13.6 -121.06,-21.58 -179.69,-23.92 -58.65,-2.34 -118.71,-3.29 -180.17,-3.29 -252.87,0 -379.54,76.95 -379.54,230.83 0,64.29 22.04,113.54 65.22,148.27 43.62,34.71 105.08,52.53 184.84,52.53 91.02,0 166.56,-15.94 227.55,-46.91 60.99,-30.95 106.49,-70.84 137,-119.63 30.02,-48.33 45.03,-98.53 45.03,-149.67l0 -159.52 85.38 373.93 -115.4 0 46.91 -44.1c0,84.45 -19.7,154.84 -58.65,211.13 -38.93,56.31 -93.83,98.53 -164.21,126.21 -70.37,28.14 -153.87,42.23 -250.06,42.23z"/>
  <path id="_2" class="fil0" d="M3453.06 2751.67l-13.6 -266.48 467.29 -13.62c147.32,-4.69 254.76,-45.5 321.86,-122.45 66.61,-76.94 100.39,-190.01 101.34,-339.66l0 -1063.61 27.68 -307.78 263.67 0 0 1327.75c0,258.99 -59.12,450.86 -176.88,574.26 -118.23,123.85 -306.83,190.01 -565.35,197.99l-426.01 13.6zm463.55 -629.16c-190.96,0 -335.46,-62.87 -433.99,-188.6 -98.51,-125.28 -147.79,-310.12 -147.79,-553.62 0,-253.35 49.27,-444.78 147.79,-574.74 98.53,-129.95 243.03,-195.17 433.99,-195.17 113.54,0 205.49,25.8 275.88,76.94 70.84,51.15 112.13,122.94 123.85,214.42l112.61 0 -99 415.22c0,-150.61 -29.56,-264.62 -88.67,-342.51 -59.12,-77.87 -145.91,-116.82 -260.4,-116.82 -117.28,0 -205.96,44.1 -266.48,132.31 -60.51,87.73 -91.02,217.69 -91.02,390.35 0,162.8 30.51,286.18 91.02,369.7 60.53,83.04 149.2,124.8 266.48,124.8 114.49,0 201.28,-38.95 260.4,-116.83 59.12,-77.87 88.67,-191.88 88.67,-342.01l99 414.74 -126.21 0c-9.39,91.95 -47.86,163.27 -116.35,214.88 -68.04,51.14 -158.11,76.94 -269.78,76.94z"/>
  <path id="_3" class="fil0" d="M5102.65 2751.67l-13.6 -266.48 467.29 -13.62c147.32,-4.69 254.76,-45.5 321.86,-122.45 66.61,-76.94 100.39,-190.01 101.34,-339.66l0 -1063.61 27.68 -307.78 263.67 0 0 1327.75c0,258.99 -59.12,450.86 -176.88,574.26 -118.23,123.85 -306.83,190.01 -565.35,197.99l-426.01 13.6zm463.55 -629.16c-190.96,0 -335.46,-62.87 -433.99,-188.6 -98.51,-125.28 -147.79,-310.12 -147.79,-553.62 0,-253.35 49.27,-444.78 147.79,-574.74 98.53,-129.95 243.03,-195.17 433.99,-195.17 113.54,0 205.49,25.8 275.88,76.94 70.84,51.15 112.13,122.94 123.85,214.42l112.61 0 -99 415.22c0,-150.61 -29.56,-264.62 -88.67,-342.51 -59.12,-77.87 -145.91,-116.82 -260.4,-116.82 -117.28,0 -205.96,44.1 -266.48,132.31 -60.51,87.73 -91.02,217.69 -91.02,390.35 0,162.8 30.51,286.18 91.02,369.7 60.53,83.04 149.2,124.8 266.48,124.8 114.49,0 201.28,-38.95 260.4,-116.83 59.12,-77.87 88.67,-191.88 88.67,-342.01l99 414.74 -126.21 0c-9.39,91.95 -47.86,163.27 -116.35,214.88 -68.04,51.14 -158.11,76.94 -269.78,76.94z"/>
  <path id="_4" class="fil0" d="M7467.26 2122.51c-248.66,0 -440.07,-65.68 -575.19,-196.11 -135.6,-130.43 -203.16,-318.09 -203.16,-562.99 0,-237.87 57.72,-423.2 172.19,-555.03 114.47,-131.85 276.34,-197.99 485.12,-197.99 197.05,0 349.06,59.58 456.96,178.76 107.44,119.16 161.39,292.28 161.39,519.37 0,67.08 -2.81,129.49 -7.96,187.19l-1022.8 0 0 -222.85 767.1 0c0,-130.9 -31.44,-231.77 -93.84,-301.68 -61.92,-69.9 -148.25,-105.1 -258.04,-105.1 -123.87,0 -220.04,42.23 -288.06,126.21 -68.51,84.45 -102.29,203.61 -102.29,357.5 0,168.44 46.91,296.99 140.76,384.71 93.83,88.21 227.55,132.31 400.67,132.31 60.51,0 120.09,-3.76 178.74,-10.32 58.65,-7.03 118.23,-16.42 178.76,-28.14l35.66 255.7c-86.33,16.42 -165.14,26.75 -236.46,31.44 -71.32,4.69 -134.66,7.03 -189.55,7.03z"/>
  <path id="_5" class="fil0" d="M8877.58 1468.02l-85.4 -456.5 112.61 0c16.89,-267.43 150.6,-401.14 401.6,-401.14 150.13,0 259.45,43.17 327.01,129.02 68.03,86.33 101.81,225.67 101.81,418.03l-288.54 0c0,-106.49 -15.94,-182.98 -47.38,-229.43 -31.9,-46.91 -83.05,-70.37 -153.42,-70.37 -123.87,0 -215.81,53.01 -276.81,159.04 -60.99,105.56 -91.48,256.18 -91.48,451.34zm-616.02 626.81l0 -239.27 973.52 0 0 239.27 -973.52 0zm324.67 0l0 -1456.77 236.46 0 54.89 417.56 0 1039.21 -291.35 0zm-269.31 -1217.96l0 -238.81 486.54 0 27.2 238.81 -513.73 0z"/>
  <path id="_6" class="fil1" d="M10626.17 2122.51c-55.84,0 -103.7,-20.17 -143.57,-60.05 -39.88,-39.88 -60.06,-87.74 -60.06,-143.57 0,-56.77 20.18,-105.1 60.06,-144.51 39.86,-39.4 87.73,-59.12 143.57,-59.12 56.75,0 104.62,19.72 144.03,59.12 39.4,39.42 59.12,87.74 59.12,144.51 0,55.82 -19.72,103.68 -59.12,143.57 -39.42,39.88 -87.28,60.05 -144.03,60.05z"/>
  <path id="_7" class="fil1" d="M12577.91 2094.84l0 -948.19c0,-88.21 -22.53,-156.23 -68.51,-203.61 -45.98,-47.86 -110.25,-71.32 -192.36,-71.32 -229.43,0 -343.9,134.66 -343.9,403.95l-84.92 -373.93 112.59 0c7.98,-98.05 44.1,-171.24 106.98,-219.11 63.34,-48.33 155.77,-72.25 277.76,-72.25 153.87,0 273.05,46.91 357.5,140.27 84.45,93.38 126.21,225.21 126.21,395.99l0 948.19 -291.35 0zm-896.12 0l0 -1456.77 264.14 0 27.21 307.78 0 1148.99 -291.35 0z"/>
  <path id="_8" class="fil1" d="M13875.62 2094.84l0 -1374.66 291.35 0 0 1374.66 -291.35 0zm-555.03 0l0 -239.27 582.71 0 0 239.27 -582.71 0zm819.17 0l0 -239.27 475.73 0 0 239.27 -475.73 0zm-736.6 -1217.96l0 -238.81 763.81 0 0 238.81 -763.81 0zm608.51 -470.1c-55.82,0 -103.68,-19.72 -143.57,-59.6 -39.86,-39.86 -59.58,-87.73 -59.58,-143.57 0,-56.75 19.72,-105.08 59.58,-144.5 39.88,-39.42 87.74,-59.12 143.57,-59.12 56.77,0 105.1,19.7 144.51,59.12 39.42,39.42 59.12,87.74 59.12,144.5 0,55.84 -19.7,103.7 -59.12,143.57 -39.42,39.88 -87.74,59.6 -144.51,59.6z"/>
  <path id="_9" class="fil1" d="M15877.09 2094.84l0 -948.19c0,-88.21 -22.53,-156.23 -68.51,-203.61 -45.98,-47.86 -110.25,-71.32 -192.36,-71.32 -229.43,0 -343.9,134.66 -343.9,403.95l-84.92 -373.93 112.59 0c7.98,-98.05 44.1,-171.24 106.98,-219.11 63.34,-48.33 155.77,-72.25 277.76,-72.25 153.87,0 273.05,46.91 357.5,140.27 84.45,93.38 126.21,225.21 126.21,395.99l0 948.19 -291.35 0zm-896.12 0l0 -1456.77 264.14 0 27.21 307.78 0 1148.99 -291.35 0z"/>
  <path id="_10" class="fil1" d="M16646.99 2754.48l-13.6 -258.5 274.93 -24.4c147.32,-14.06 254.28,-56.75 320.91,-129.49 66.61,-72.25 99.46,-182.98 99.46,-332.63l0 -442.43 291.82 0 0 398.8c0,173.12 -25.8,313.88 -76.94,422.25 -51.62,108.84 -131.85,190.94 -240.68,246.3 -109.32,55.37 -249.61,90.09 -422.25,103.7l-233.65 16.41zm115.42 -1877.61l0 -238.81 588.33 0 0 238.81 -588.33 0zm566.28 737.06l0 -975.87 291.82 0 0 975.87 -291.82 0zm115.89 -1207.16c-56.31,0 -104.17,-19.72 -144.03,-59.6 -39.88,-39.86 -59.6,-87.73 -59.6,-143.57 0,-56.75 19.72,-105.08 59.6,-144.5 39.86,-39.42 87.73,-59.12 144.03,-59.12 56.77,0 104.62,19.7 144.03,59.12 39.42,39.42 59.12,87.74 59.12,144.5 0,55.84 -19.7,103.7 -59.12,143.57 -39.42,39.88 -87.26,59.6 -144.03,59.6z"/>
  <path id="_11" class="fil1" d="M19173.45 2108.43l-19.23 -431.63 -38.47 -120.57 0 -376.74c0,-97.12 -33.78,-168.44 -102.27,-213.95 -68.04,-45.03 -169.85,-69.9 -304.5,-73.18l-349.06 -9.86 27.68 -258.5 294.16 4.22c240.68,3.74 419.91,55.82 536.74,156.22 116.82,99.94 175,246.32 175,439.14l0 607.11 247.72 30.49 0 233.65 -467.77 13.6zm-513.73 14.08c-152.01,0 -269.78,-37.06 -353.28,-110.25 -83.52,-73.2 -125.28,-176.88 -125.28,-310.59 0,-153.89 57.72,-272.12 172.66,-354.69 114.96,-82.57 277.27,-123.4 487.47,-123.4 86.79,0 164.68,5.17 232.7,15.49 68.51,10.79 129.02,26.27 182.03,47.38l-60.51 197.99c-60.99,-13.6 -121.06,-21.58 -179.69,-23.92 -58.65,-2.34 -118.71,-3.29 -180.17,-3.29 -252.87,0 -379.54,76.95 -379.54,230.83 0,64.29 22.04,113.54 65.22,148.27 43.62,34.71 105.08,52.53 184.84,52.53 91.02,0 166.56,-15.94 227.55,-46.91 60.99,-30.95 106.49,-70.84 137,-119.63 30.02,-48.33 45.03,-98.53 45.03,-149.67l0 -159.52 85.38 373.93 -115.4 0 46.91 -44.1c0,84.45 -19.7,154.84 -58.65,211.13 -38.93,56.31 -93.83,98.53 -164.21,126.21 -70.37,28.14 -153.87,42.23 -250.06,42.23z"/>
 </g>
</svg>
